<?xml version="1.0" encoding="UTF-8"?>
<svg width="53px" height="879px" viewBox="0 0 53 879" version="1.1" xmlns="http://www.w3.org/2000/svg" xmlns:xlink="http://www.w3.org/1999/xlink">
    <g id="Page-1" stroke="none" stroke-width="1" fill="none" fill-rule="evenodd">
        <g id="brands-colors" fill-rule="nonzero">
            <g id="Suar" transform="translate(0.000000, 688.000000)">
                <rect id="background" fill="#6B7685" x="0" y="0.335" width="53" height="52.93"></rect>
                <path d="M39.691,19.341 L18.408,19.341 C16.873,19.341 15.629,20.585 15.629,22.122 L15.629,35.761 C15.629,37.298 16.873,38.54 18.408,38.54 L24.882,38.54 L29.051,42.71 L33.219,38.54 L39.694,38.54 C41.229,38.54 42.473,37.298 42.473,35.761 L42.473,22.122 C42.473,20.585 41.229,19.341 39.691,19.341" id="path5" fill="#58B6E6"></path>
                <path d="M14.472,18.083 L10.843,18.698 C9.329,18.954 8.311,20.386 8.568,21.903 L10.848,35.344 C11.078,36.703 12.253,37.66 13.585,37.66 C13.739,37.66 13.896,37.648 14.052,37.621 L16.082,37.277 C15.795,36.839 15.629,36.318 15.629,35.754 L15.629,31.947 C14.342,31.615 13.444,30.394 13.559,29.025 L14.472,18.083" id="path7" fill="#55667F"></path>
                <path d="M15.629,31.955 L15.629,35.762 C15.629,36.326 15.796,36.848 16.082,37.285 L20.435,36.547 L28.654,35.152 L35.036,34.072 C35.4,34.008 35.734,33.881 36.029,33.699 L30.855,33.265 L22.544,32.572 L16.092,32.033 C15.936,32.019 15.78,31.994 15.629,31.955" id="path9" fill="#3AA8E6"></path>
                <path d="M17.458,12.89 C16.028,12.89 14.813,13.988 14.692,15.441 L14.471,18.086 L31.827,15.143 C31.984,15.12 32.14,15.108 32.295,15.108 C33.626,15.108 34.802,16.067 35.032,17.421 L35.359,19.347 L39.691,19.347 C40.273,19.347 40.814,19.529 41.261,19.831 L41.441,17.677 C41.568,16.15 40.433,14.802 38.902,14.677 L17.692,12.907 C17.615,12.894 17.537,12.89 17.458,12.89" id="path11" fill="#90C859"></path>
                <path d="M39.691,19.341 L35.359,19.341 L37.312,30.864 C37.505,32.01 36.962,33.12 36.029,33.696 L37.306,33.8 C37.382,33.808 37.46,33.81 37.538,33.81 C38.97,33.81 40.184,32.714 40.306,31.261 L41.261,19.823 C40.816,19.521 40.275,19.341 39.691,19.341" id="path13" fill="#63E0DF"></path>
                <path d="M32.296,15.101 C32.143,15.101 31.984,15.115 31.828,15.14 L14.472,18.083 L13.558,29.032 C13.444,30.401 14.341,31.62 15.628,31.952 L15.628,22.122 C15.628,20.585 16.872,19.341 18.407,19.341 L35.359,19.341 L35.033,17.415 C34.803,16.06 33.627,15.101 32.296,15.101" id="path15" fill="#60A058"></path>
                <path d="M35.359,19.341 L18.408,19.341 C16.873,19.341 15.629,20.585 15.629,22.122 L15.629,31.952 C15.78,31.991 15.936,32.015 16.096,32.032 L22.548,32.571 L30.858,33.259 L36.034,33.697 C36.97,33.121 37.513,32.011 37.315,30.865 L35.359,19.341" id="path17" fill="#41DADF"></path>
                <circle id="circle19" fill="#FFFFFF" cx="26.879" cy="29.069" r="6.466"></circle>
                <circle id="circle21" fill="#6B7684" cx="26.878" cy="29.07" r="4.127"></circle>
                <path d="M37.296,22.242 L36.096,22.242 C35.746,22.242 35.41,22.381 35.165,22.629 L35.139,22.656 C34.317,23.484 34.903,24.892 36.069,24.892 L36.319,24.892 C36.522,24.892 37.298,24.878 37.494,24.853 C39.102,24.636 38.918,22.242 37.296,22.242 Z" id="path23" fill="#FFFFFF"></path>
            </g>
            <g id="Academy" transform="translate(0.000000, 550.000000)">
                <rect id="rect26" fill="#616571" x="0" y="0.767" width="52.928" height="52.93"></rect>
                <g id="icon" transform="translate(11.000000, 15.000000)" fill="#F4F4F4">
                    <path d="M14.852,8.535 L21.098,8.535 L21.811,5.064 L17.458,5.064 C14.357,5.064 11.766,5.834 9.685,7.373 C7.759,8.797 6.46,11.115 5.785,14.318 L5.312,17.074 L23.135,17.078 L23.69,14.379 L13.56,14.377 L14.852,8.535 Z" id="path29" opacity="0.2"></path>
                    <polygon id="polygon31" opacity="0.5" points="24.417 25.111 24.965 22.371 1.488 22.371 0.933 25.111"></polygon>
                    <path d="M25.493,19.81 L27.956,7.652 L24.027,7.65 L25.465,0.318 L17.399,0.316 C13.854,0.316 10.807,1.242 8.336,3.064 C5.752,4.976 4.234,8.029 3.518,12.185 L2,19.81 L25.493,19.81 Z M6.066,12.675 C6.655,9.237 7.968,6.745 9.968,5.267 C11.953,3.796 14.453,3.052 17.397,3.052 L22.223,3.052 L21.096,8.534 L14.851,8.534 L14.16,11.651 L24.25,11.645 L23.134,17.075 L5.311,17.073 L6.066,12.675 Z" id="path33"></path>
                </g>
            </g>
            <g id="IO" transform="translate(0.000000, 413.000000)">
                <rect id="rect36" fill="#F26A38" x="0" y="0.197" width="52.928" height="52.926"></rect>
                <path d="M10.692,14.154 C10.849,14.16 11.007,14.172 11.163,14.172 C14.913,14.172 18.662,14.172 22.41,14.172 L22.899,14.172 C22.195,23.029 21.494,31.834 20.794,40.643 C20.769,40.645 20.742,40.657 20.718,40.661 C20.332,39.763 19.944,38.862 19.558,37.962 C19.052,36.773 18.54,35.597 18.052,34.407 C17.935,34.128 17.797,34.011 17.475,34.011 C15.345,34.032 13.214,34.019 11.083,34.023 C10.952,34.023 10.822,34.044 10.692,34.054 L10.692,14.154 Z M14.225,23.824 C14.225,25.941 14.23,28.056 14.218,30.174 C14.217,30.492 14.298,30.615 14.635,30.613 C15.463,30.59 16.293,30.592 17.121,30.603 C17.412,30.615 17.506,30.513 17.504,30.222 C17.496,25.993 17.496,21.751 17.505,17.519 C17.506,17.195 17.38,17.124 17.089,17.128 C16.286,17.144 15.484,17.149 14.682,17.126 C14.321,17.114 14.213,17.224 14.217,17.589 C14.236,19.667 14.225,21.746 14.225,23.824 Z" id="path38" fill="#FFFFFF"></path>
                <path d="M21.835,40.646 C22.887,31.835 23.938,23.021 24.991,14.193 L42.238,14.193 L42.238,34.019 L41.717,34.019 C36.735,34.019 31.742,34.023 26.759,34.011 C26.415,34.007 26.22,34.116 26.035,34.406 C24.743,36.386 23.433,38.359 22.131,40.336 C22.06,40.445 21.985,40.553 21.913,40.662 C21.887,40.656 21.859,40.652 21.835,40.646 M33.402,30.595 C37.181,30.605 40.232,27.62 40.242,23.907 C40.252,20.167 37.24,17.149 33.484,17.136 C29.679,17.124 26.629,20.111 26.623,23.845 C26.618,27.58 29.639,30.589 33.402,30.595" id="path40" fill="#FFFFFF"></path>
                <path d="M37.045,23.898 C37.051,25.865 35.402,27.543 33.451,27.556 C31.494,27.574 29.812,25.872 29.82,23.892 C29.83,21.919 31.488,20.249 33.433,20.251 C35.381,20.255 37.039,21.929 37.045,23.898" id="path42" fill="#FFFFFF"></path>
            </g>
            <g id="Khamsat" transform="translate(0.000000, 275.000000)">
                <rect id="rect45" fill="#F3AD2D" x="0" y="0.625" width="52.928" height="52.928"></rect>
                <path d="M23.213,28.105 C23.713,27.556 24.296,27.167 24.955,26.926 L24.955,22.221 C23.001,22.542 21.326,23.44 19.933,24.923 C18.156,26.816 17.265,29.09 17.265,31.749 L21.829,31.749 C21.83,30.334 22.291,29.12 23.213,28.105" id="path47" fill="#353535"></path>
                <polygon id="polygon49" fill="#353535" points="24.955 36.313 17.265 36.313 17.265 38.597 17.265 40.878 19.078 40.878 22.323 40.878 24.955 40.878"></polygon>
                <path d="M33.242,24.815 C31.419,23.065 29.222,22.155 26.651,22.084 C26.492,22.084 26.336,22.087 26.181,22.094 L26.181,26.666 C26.383,26.649 26.589,26.642 26.803,26.647 C28.09,26.691 29.189,27.18 30.101,28.116 C31.017,29.052 31.482,30.162 31.497,31.448 L31.497,31.47 L31.497,31.598 L31.473,31.726 C31.403,32.997 30.905,34.08 29.975,34.973 C29.044,35.866 27.938,36.312 26.652,36.312 L26.182,36.312 L26.182,40.877 L26.804,40.877 C29.303,40.834 31.45,39.923 33.242,38.145 C35.035,36.364 35.969,34.226 36.039,31.726 L36.039,31.706 L36.039,31.599 L36.039,31.471 L36.039,31.342 C35.998,28.741 35.063,26.566 33.242,24.815" id="path51" fill="#353535"></path>
                <path d="M24.955,13.597 L16.888,13.597 L16.888,27.803 C17.735,25.309 19.314,23.402 21.632,22.08 L21.632,18.34 L24.955,18.34 L24.955,13.597 Z" id="path53" fill="#353535"></path>
                <rect id="rect55" fill="#353535" x="26.181" y="13.598" width="8.68" height="4.743"></rect>
            </g>
            <g id="Mostaql" transform="translate(0.000000, 138.000000)">
                <rect id="rect58" fill="#2CAAE2" x="0" y="0.054" width="52.93" height="52.927"></rect>
                <path d="M26.462,40.839 C18.566,40.839 12.145,34.417 12.145,26.521 C12.145,18.626 18.566,12.203 26.462,12.203 C34.358,12.203 40.781,18.627 40.781,26.521 C40.781,34.417 34.357,40.839 26.462,40.839 M26.462,19.611 C22.652,19.611 19.552,22.709 19.552,26.521 C19.552,30.333 22.652,33.431 26.462,33.431 C30.274,33.431 33.375,30.332 33.375,26.521 C33.375,22.71 30.273,19.611 26.462,19.611" id="path60" fill="#FFFFFF"></path>
            </g>
            <g id="Ads_1_">
                <rect id="Background" fill="#2EB8D7" x="0.035" y="0" width="52.93" height="52.927"></rect>
                <g id="Icon" transform="translate(11.000000, 10.000000)">
                    <rect id="rect65" fill="#333333" x="0.046" y="6.15" width="25.749" height="25.783"></rect>
                    <polygon id="polygon67" fill="#28889C" points="5.203 0.993 5.203 16.463 15.483 16.463 15.483 26.776 30.953 26.776 30.953 0.993"></polygon>
                    <polygon id="polygon69" fill="#FFFFFF" points="10.292 6.15 10.292 11.307 20.639 11.307 20.639 21.62 25.795 21.62 25.795 6.15"></polygon>
                </g>
            </g>
            <g id="Wiki" transform="translate(0.000000, 825.000000)">
                <polygon id="Shape" fill="#205A23" points="0.0377670244 0.0919371192 52.9159032 0.0919371192 52.9159032 53.9608681 0.0377670244 53.9608681"></polygon>
                <g id="wiki-logo-dark" transform="translate(11.904297, 12.070588)" fill="#FFFFFF">
                    <path d="M18.9539678,23.0096477 L19.7990054,23.5069815 L19.823526,23.457442 C21.0061924,21.7663084 21.634321,19.752803 21.634321,17.6391346 C21.6588415,14.9291631 20.6685636,12.3917664 18.8331419,10.5026442 C16.9978167,8.5871384 14.5352804,7.51764706 11.9274942,7.51764706 C6.54315567,7.51764706 2.17382812,12.0431354 2.17382812,17.5886553 C2.17382812,23.1341751 6.54339711,27.6352941 11.9274942,27.6352941 C12.8687212,27.6352941 13.7628194,27.5109607 14.6079536,27.2370293 L14.6560531,27.2117747 L14.4627133,26.2171072 L14.3900932,26.2423618 C13.5695858,26.4910287 12.7245482,26.6406266 11.8796071,26.6406266 C7.05082049,26.6406266 3.11511798,22.587108 3.11511798,17.6137706 C3.11511798,12.6404332 7.05082049,8.5869146 11.8796071,8.5869146 C16.7083937,8.5869146 20.6440962,12.6404332 20.6440962,17.6137706 C20.6440962,19.5283066 20.0650281,21.3691377 18.9540209,22.9601083 L18.9539678,23.0096477 Z" id="Shape"></path>
                    <path d="M20.4597022,8.92782057 C18.1998554,6.57362943 15.1951849,5.29411765 11.9924774,5.29411765 C10.8751672,5.29411765 9.80731665,5.44806443 8.79001815,5.75496505 L8.74055359,5.78095553 L8.91416373,6.7276274 L8.98884474,6.70163691 C9.98200934,6.4197236 11.0004003,6.26679023 11.9936642,6.26679023 C18.0767974,6.26679023 23.0426204,11.358939 23.0426204,17.6549007 C23.0416505,23.9498386 18.0758042,29.016908 11.9926711,29.016908 C5.90953791,28.9909175 0.943714931,23.872553 0.943714931,17.6287976 C0.943714931,15.2486057 1.63912878,12.9962678 2.97950372,11.0520998 L3.02896828,11.0011169 L2.20940886,10.5152925 L2.18419241,10.5662754 C0.770099828,12.612578 0,15.0698252 0,17.6547983 C0,24.436482 5.3635854,29.9647059 11.9433008,29.9647059 C18.548342,29.9647059 23.9106859,24.436482 23.9106859,17.6547983 C23.9601505,14.353014 22.7186898,11.2569834 20.4599356,8.92766702 L20.4597022,8.92782057 Z" id="Shape"></path>
                    <polygon id="Shape" points="10.4550781 22.0235294 11.4550047 22.0235294 13.8710938 12.9176471 12.8711671 12.9176471"></polygon>
                    <polygon id="Shape" points="8.62828077 13.4470588 6.01159621 17.170769 5.796875 17.4706036 8.57439006 21.4083715 8.62832811 21.4941176 9.41992187 20.8802431 7.00457132 17.4705589 9.41992187 14.0608747"></polygon>
                    <polygon id="Shape" points="15.1802662 13.4470588 14.3886719 14.0609355 16.8040242 17.4706316 14.4560024 20.7950398 14.4020643 20.8802409 15.1803109 21.4941176 17.7969974 17.7703946 18.0117187 17.4705589"></polygon>
                    <path d="M18.6328125,0 C23.0618141,2.41750854 26.9639456,6.19486564 29.0878906,10.6941176 L29.0878906,0 L18.6328125,0 Z" id="Shape"></path>
                </g>
            </g>
        </g>
    </g>
</svg>